<svg width="28" height="29" viewBox="0 0 28 29" fill="none" xmlns="http://www.w3.org/2000/svg">
<g id="Symbol=Diamond, Component=Symbol">
<path id="Vector" d="M23.0254 16.8401C21.6913 21.8191 16.6996 24.8077 11.8762 23.5152C7.05275 22.2228 4.2241 17.1388 5.55825 12.1598C6.89236 7.18076 11.884 4.1922 16.7075 5.48463C21.5309 6.77706 24.3595 11.8611 23.0254 16.8401Z" fill="#A56402"/>
<path id="Vector_2" fill-rule="evenodd" clip-rule="evenodd" d="M23.5889 16.9912C22.1759 22.2644 16.8766 25.4592 11.7252 24.0788C6.57387 22.6986 3.58187 17.2822 4.99482 12.009C6.40777 6.73574 11.7071 3.54103 16.8585 4.92134C22.0098 6.30162 25.0018 11.718 23.5889 16.9912ZM11.8762 23.5154C16.6996 24.8078 21.6913 21.8193 23.0254 16.8402C24.3596 11.8612 21.5309 6.77721 16.7075 5.48478C11.8841 4.19235 6.8924 7.18091 5.55826 12.1599C4.22415 17.139 7.05279 22.223 11.8762 23.5154Z" fill="#5B3303"/>
<path id="Vector_3" d="M22.4419 16.2568C21.1078 21.2358 16.1161 24.2244 11.2927 22.932C6.46925 21.6395 3.64061 16.5555 4.97475 11.5765C6.30886 6.59751 11.3005 3.60895 16.124 4.90138C20.9474 6.19381 23.776 11.2778 22.4419 16.2568Z" fill="#FFB423"/>
<path id="Vector_4" fill-rule="evenodd" clip-rule="evenodd" d="M23.0054 16.4077C21.5924 21.6809 16.2931 24.8757 11.1417 23.4954C5.99038 22.1151 2.99837 16.6987 4.41132 11.4255C5.82427 6.15224 11.1236 2.95753 16.275 4.33784C21.4263 5.71812 24.4183 11.1345 23.0054 16.4077ZM11.2927 22.9319C16.1161 24.2243 21.1078 21.2358 22.4419 16.2567C23.7761 11.2777 20.9474 6.19372 16.124 4.90128C11.3006 3.60885 6.30891 6.59741 4.97477 11.5764C3.64065 16.5555 6.4693 21.6395 11.2927 22.9319Z" fill="#5B3303"/>
<path id="Vector_5" d="M20.7517 15.8038C19.6677 19.8492 15.6356 22.2838 11.7457 21.2415C7.85588 20.1992 5.58126 16.0748 6.66524 12.0293C7.74919 7.98387 11.7813 5.54933 15.6711 6.59163C19.561 7.6339 21.8356 11.7583 20.7517 15.8038Z" fill="#FFCF23"/>
<path id="Vector_6" fill-rule="evenodd" clip-rule="evenodd" d="M21.3151 15.9548C20.1533 20.2904 15.8163 22.9362 11.5947 21.805C7.37301 20.6738 4.93998 16.214 6.10172 11.8784C7.26343 7.54277 11.6004 4.897 15.8221 6.02817C20.0437 7.15937 22.4768 11.6192 21.3151 15.9548ZM11.7457 21.2415C15.6355 22.2838 19.6676 19.8493 20.7516 15.8038C21.8356 11.7583 19.5609 7.63391 15.6711 6.59164C11.7812 5.54934 7.74914 7.98391 6.66516 12.0294C5.58118 16.0748 7.8558 20.1992 11.7457 21.2415Z" fill="#DF8D12"/>
<path id="Vector_7" fill-rule="evenodd" clip-rule="evenodd" d="M19.123 8.72301C18.3216 8.00884 17.3524 7.46914 16.2545 7.17496C12.3646 6.13266 8.33254 8.56723 7.24856 12.6127C6.54909 15.2232 7.24816 17.8666 8.87729 19.6935C6.83944 17.8773 5.88721 14.933 6.66523 12.0293C7.74921 7.9839 11.7813 5.54933 15.6712 6.59163C17.0509 6.96132 18.2275 7.7188 19.123 8.72301Z" fill="#FFDD65"/>
<path id="Vector_8" d="M18.8365 17.1635C18.9315 17.3717 18.8397 17.6173 18.6316 17.7123C18.4235 17.8072 18.1778 17.7154 18.0829 17.5073C17.9879 17.2992 18.0797 17.0535 18.2878 16.9586C18.4959 16.8637 18.7416 16.9554 18.8365 17.1635Z" fill="#EEBE14"/>
<path id="Vector_9" d="M20.505 15.4919C20.5999 15.7 20.5082 15.9457 20.3001 16.0407C20.0919 16.1356 19.8463 16.0438 19.7513 15.8357C19.6564 15.6276 19.7482 15.3819 19.9563 15.287C20.1644 15.192 20.4101 15.2838 20.505 15.4919Z" fill="#EEBE14"/>
<path id="Vector_10" d="M18.4855 15.324C18.5804 15.5321 18.4886 15.7778 18.2805 15.8727C18.0724 15.9676 17.8267 15.8758 17.7318 15.6677C17.6369 15.4596 17.7286 15.2139 17.9367 15.119C18.1449 15.0241 18.3905 15.1158 18.4855 15.324Z" fill="#EEBE14"/>
<path id="Vector_11" d="M19.3327 15.9371C19.3988 16.0821 19.3349 16.2532 19.19 16.3193C19.045 16.3854 18.8739 16.3215 18.8078 16.1765C18.7417 16.0316 18.8056 15.8605 18.9505 15.7944C19.0955 15.7283 19.2666 15.7922 19.3327 15.9371Z" fill="#EEBE14"/>
<path id="Vector_12" d="M19.2204 14.6718C19.2865 14.8167 19.2226 14.9878 19.0777 15.0539C18.9327 15.12 18.7616 15.0561 18.6955 14.9112C18.6294 14.7662 18.6933 14.5951 18.8383 14.529C18.9832 14.4629 19.1543 14.5268 19.2204 14.6718Z" fill="#EEBE14"/>
<path id="Vector_13" d="M20.5378 14.3878C20.6039 14.5328 20.54 14.7038 20.395 14.77C20.2501 14.8361 20.079 14.7722 20.0129 14.6272C19.9468 14.4823 20.0107 14.3112 20.1556 14.2451C20.3006 14.179 20.4717 14.2429 20.5378 14.3878Z" fill="#EEBE14"/>
<path id="Vector_14" d="M20.7082 12.5868C20.7743 12.7317 20.7104 12.9028 20.5655 12.9689C20.4205 13.035 20.2494 12.9711 20.1833 12.8262C20.1172 12.6812 20.1811 12.5101 20.3261 12.4441C20.471 12.3779 20.6421 12.4418 20.7082 12.5868Z" fill="#EEBE14"/>
<path id="Vector_15" d="M19.8151 13.7662C19.8812 13.9112 19.8173 14.0823 19.6724 14.1484C19.5274 14.2145 19.3564 14.1506 19.2902 14.0056C19.2241 13.8607 19.288 13.6896 19.433 13.6235C19.5779 13.5574 19.749 13.6213 19.8151 13.7662Z" fill="#EEBE14"/>
<path id="Vector_16" d="M20.0514 16.7072C20.1176 16.8521 20.0537 17.0232 19.9087 17.0893C19.7638 17.1554 19.5927 17.0915 19.5266 16.9466C19.4605 16.8016 19.5244 16.6305 19.6693 16.5644C19.8143 16.4983 19.9853 16.5622 20.0514 16.7072Z" fill="#EEBE14"/>
<path id="Vector_17" d="M18.7392 18.4092C18.8003 18.5432 18.7412 18.7013 18.6073 18.7624C18.4733 18.8235 18.3152 18.7644 18.2541 18.6305C18.193 18.4965 18.252 18.3384 18.386 18.2773C18.5199 18.2162 18.6781 18.2752 18.7392 18.4092Z" fill="#EEBE14"/>
<path id="Vector_18" d="M19.3667 17.6855C19.4041 17.7675 19.368 17.8642 19.286 17.9016C19.2041 17.939 19.1073 17.9029 19.0699 17.8209C19.0325 17.739 19.0687 17.6422 19.1506 17.6048C19.2326 17.5674 19.3293 17.6036 19.3667 17.6855Z" fill="#EEBE14"/>
<path id="Vector_19" d="M18.2139 16.3501C18.2647 16.4616 18.2156 16.5932 18.104 16.644C17.9926 16.6949 17.8609 16.6457 17.8101 16.5343C17.7592 16.4227 17.8084 16.2911 17.9199 16.2403C18.0314 16.1894 18.163 16.2386 18.2139 16.3501Z" fill="#EEBE14"/>
<path id="Vector_20" d="M19.9009 12.8491C19.9517 12.9606 19.9026 13.0922 19.7911 13.1431C19.6796 13.1939 19.548 13.1448 19.4971 13.0333C19.4463 12.9218 19.4954 12.7902 19.6069 12.7393C19.7184 12.6884 19.85 12.7376 19.9009 12.8491Z" fill="#EEBE14"/>
<path id="Vector_21" d="M20.5669 13.6672C20.6177 13.7787 20.5686 13.9103 20.4571 13.9612C20.3456 14.012 20.214 13.9629 20.1631 13.8514C20.1123 13.7399 20.1614 13.6083 20.2729 13.5574C20.3844 13.5066 20.516 13.5557 20.5669 13.6672Z" fill="#EEBE14"/>
<path id="Vector_22" d="M17.9297 17.9187C17.9805 18.0302 17.9314 18.1618 17.8199 18.2126C17.7084 18.2635 17.5768 18.2143 17.5259 18.1028C17.4751 17.9913 17.5242 17.8597 17.6357 17.8089C17.7472 17.758 17.8788 17.8072 17.9297 17.9187Z" fill="#EEBE14"/>
<path id="Vector_23" d="M17.8037 19.2117C17.8546 19.3232 17.8054 19.4548 17.6939 19.5056C17.5824 19.5565 17.4508 19.5073 17.3999 19.3958C17.3491 19.2843 17.3983 19.1527 17.5097 19.1018C17.6212 19.051 17.7528 19.1002 17.8037 19.2117Z" fill="#EEBE14"/>
<path id="Vector_24" fill-rule="evenodd" clip-rule="evenodd" d="M12.4828 9.26109C13.283 8.97097 14.1575 9.02207 14.8764 9.17586C15.5746 9.32525 16.1657 9.54243 16.6734 9.88333C17.1896 10.2299 17.5468 10.6554 17.8414 11.1104C18.1917 11.6512 18.0371 12.3735 17.4963 12.7238C16.9554 13.074 16.2331 12.9194 15.8828 12.3786C15.7011 12.0978 15.5495 11.9391 15.3728 11.8205C15.1878 11.6963 14.9021 11.5675 14.3883 11.4576C13.895 11.352 13.5087 11.3711 13.2782 11.4547C13.1766 11.4915 13.1202 11.5349 13.084 11.5756C13.0493 11.6147 12.9955 11.6939 12.9599 11.8604C12.9243 12.0268 12.941 12.1211 12.9567 12.171C12.9729 12.2229 13.0067 12.2856 13.0844 12.3608C13.2605 12.5314 13.6052 12.7068 14.0984 12.8123C14.8173 12.9661 15.6362 13.2773 16.2476 13.8694C16.9192 14.5197 17.2637 15.444 17.0305 16.5341C16.7973 17.6243 16.1047 18.3266 15.2259 18.6453C14.4257 18.9354 13.5512 18.8843 12.8323 18.7305C11.3334 18.4098 10.3217 17.6013 9.83173 16.7374C9.51387 16.1769 9.71057 15.4649 10.271 15.147C10.8315 14.8292 11.5435 15.0259 11.8614 15.5863C11.9851 15.8045 12.3951 16.2508 13.3204 16.4488C13.8137 16.5543 14.2 16.5353 14.4305 16.4517C14.5321 16.4149 14.5886 16.3714 14.6247 16.3308C14.6594 16.2916 14.7132 16.2125 14.7488 16.046C14.7844 15.8795 14.7677 15.7853 14.752 15.7354C14.7358 15.6835 14.702 15.6207 14.6244 15.5456C14.4482 15.375 14.1035 15.1996 13.6103 15.094C12.8914 14.9402 12.0725 14.6291 11.4611 14.037C10.7896 13.3866 10.445 12.4624 10.6782 11.3722C10.9114 10.2821 11.604 9.57976 12.4828 9.26109Z" fill="#C37808"/>
<path id="Vector_25" fill-rule="evenodd" clip-rule="evenodd" d="M15.2654 7.35759C15.8954 7.4924 16.2969 8.11246 16.1621 8.74252L15.796 10.4538C15.6613 11.0839 15.0412 11.4854 14.4111 11.3506C13.7811 11.2158 13.3796 10.5957 13.5143 9.96565L13.8805 8.25438C14.0152 7.62429 14.6353 7.22282 15.2654 7.35759Z" fill="#C37808"/>
<path id="Vector_26" fill-rule="evenodd" clip-rule="evenodd" d="M13.3201 16.4487C13.9501 16.5834 14.3516 17.2035 14.2168 17.8336L13.8507 19.5449C13.7159 20.1749 13.0959 20.5764 12.4658 20.4416C11.8357 20.3068 11.4342 19.6868 11.569 19.0567L11.9351 17.3455C12.0699 16.7154 12.69 16.3139 13.3201 16.4487Z" fill="#C37808"/>
<path id="Vector_27" fill-rule="evenodd" clip-rule="evenodd" d="M12.7311 9.94643C13.3532 9.72085 14.0751 9.75002 14.7235 9.88874C15.3642 10.0258 15.8598 10.2154 16.2667 10.4885C16.6767 10.7639 16.9697 11.106 17.2291 11.5065C17.3604 11.7093 17.3024 11.9802 17.0996 12.1116C16.8968 12.2429 16.6259 12.1849 16.4946 11.9821C16.2775 11.6469 16.0617 11.4048 15.779 11.215C15.4931 11.0231 15.112 10.8666 14.5405 10.7444C13.9767 10.6238 13.4379 10.6209 13.0293 10.769C12.6503 10.9064 12.3596 11.179 12.2465 11.7077C12.1334 12.2364 12.2872 12.6039 12.5768 12.8844C12.889 13.1867 13.3818 13.4046 13.9456 13.5252C14.594 13.6639 15.2646 13.9327 15.74 14.393C16.238 14.8753 16.4958 15.5465 16.3172 16.3814C16.1386 17.2164 15.6287 17.7233 14.977 17.9596C14.3549 18.1852 13.6329 18.156 12.9845 18.0173C11.6648 17.7349 10.8412 17.0396 10.4657 16.3775C10.3465 16.1674 10.4203 15.9003 10.6304 15.7812C10.8406 15.662 11.1076 15.7357 11.2268 15.9459C11.465 16.3658 12.063 16.9253 13.1676 17.1616C13.7314 17.2823 14.2702 17.2851 14.6787 17.137C15.0578 16.9996 15.3484 16.7271 15.4616 16.1984C15.5747 15.6697 15.4209 15.3021 15.1313 15.0216C14.8192 14.7193 14.3263 14.5014 13.7625 14.3808C13.1141 14.2421 12.4434 13.9734 11.9681 13.513C11.4701 13.0308 11.2123 12.3596 11.3909 11.5246C11.5695 10.6897 12.0794 10.1827 12.7311 9.94643Z" fill="#FFB423"/>
<path id="Vector_28" fill-rule="evenodd" clip-rule="evenodd" d="M15.1125 8.07056C15.3488 8.12111 15.4994 8.35365 15.4488 8.5899L15.0827 10.3012C15.0321 10.5375 14.7996 10.688 14.5633 10.6375C14.3271 10.5869 14.1765 10.3544 14.2271 10.1181L14.5932 8.40685C14.6437 8.17057 14.8762 8.02002 15.1125 8.07056Z" fill="#FFB423"/>
<path id="Vector_29" fill-rule="evenodd" clip-rule="evenodd" d="M13.1677 17.1616C13.404 17.2122 13.5545 17.4447 13.504 17.681L13.1379 19.3923C13.0873 19.6285 12.8548 19.7791 12.6185 19.7286C12.3822 19.678 12.2317 19.4455 12.2822 19.2092L12.6483 17.4979C12.6989 17.2616 12.9314 17.1111 13.1677 17.1616Z" fill="#FFB423"/>
<path id="Vector_30" fill-rule="evenodd" clip-rule="evenodd" d="M5.69893 11.1274C5.54805 11.071 5.47143 10.9029 5.5278 10.752C6.53455 8.05791 8.7891 5.97285 11.5892 5.20005C11.7445 5.15717 11.9051 5.24832 11.9479 5.4036C11.9908 5.55888 11.8997 5.7195 11.7444 5.76235C9.12595 6.48504 7.01603 8.43594 6.07424 10.9562C6.01786 11.1071 5.84983 11.1837 5.69893 11.1274Z" fill="#FFCF72"/>
<path id="Vector_31" fill-rule="evenodd" clip-rule="evenodd" d="M20.9754 18.3366C21.1116 18.4227 21.1523 18.6028 21.0662 18.739C20.384 19.819 19.4793 20.7445 18.4165 21.4511C18.2824 21.5403 18.1014 21.5038 18.0122 21.3697C17.923 21.2356 17.9594 21.0545 18.0936 20.9653C19.0881 20.3041 19.9347 19.438 20.573 18.4274C20.6591 18.2913 20.8392 18.2506 20.9754 18.3366Z" fill="#FFCF72"/>
<path id="Vector_32" fill-rule="evenodd" clip-rule="evenodd" d="M8.91181 7.15926C8.91175 7.15932 8.91187 7.15923 8.91181 7.15926L8.75002 6.91659C8.91181 7.15926 8.91178 7.15929 8.91181 7.15926L8.91076 7.15999L8.90484 7.16401C8.89933 7.16777 8.89072 7.17375 8.87926 7.1818C8.8564 7.1979 8.8223 7.22243 8.77919 7.25475C8.69292 7.31944 8.57115 7.41511 8.43167 7.53714C8.15112 7.78261 7.80677 8.12812 7.53439 8.53671C7.44502 8.67073 7.26392 8.70696 7.1299 8.61759C6.99588 8.52825 6.95966 8.34716 7.04902 8.21314C7.35994 7.74673 7.74477 7.36307 8.04755 7.09812C8.19974 6.96495 8.33317 6.8601 8.42919 6.78808C8.47726 6.75203 8.51605 6.72412 8.54329 6.70493C8.55694 6.69533 8.56767 6.68789 8.57526 6.6827L8.58424 6.67661L8.58687 6.67483L8.58771 6.67427L8.588 6.67407C8.58806 6.67401 8.58824 6.6739 8.75002 6.91659L8.588 6.67407C8.72205 6.5847 8.90335 6.62078 8.99272 6.7548C9.08203 6.88877 9.04569 7.06989 8.91181 7.15926Z" fill="#FFE9AF"/>
<path id="Vector_33" fill-rule="evenodd" clip-rule="evenodd" d="M10.0783 8.61775C10.0783 8.61781 10.0784 8.61772 10.0783 8.61775L9.91653 8.37509C10.0783 8.61775 10.0783 8.61778 10.0783 8.61775L10.0773 8.61848L10.0713 8.62251C10.0658 8.62627 10.0572 8.63225 10.0458 8.6403C10.0229 8.6564 9.9888 8.68093 9.9457 8.71325C9.85942 8.77794 9.73765 8.8736 9.59817 8.99564C9.31762 9.2411 8.97328 9.58661 8.70089 9.99521C8.61152 10.1292 8.43043 10.1655 8.29641 10.0761C8.16239 9.98675 8.12616 9.80565 8.21553 9.67163C8.52645 9.20523 8.91127 8.82157 9.21405 8.55662C9.36624 8.42345 9.49968 8.31859 9.5957 8.24658C9.64376 8.21053 9.68255 8.18262 9.7098 8.16342C9.72345 8.15383 9.73418 8.14639 9.74176 8.1412L9.75075 8.1351L9.75337 8.13332L9.75422 8.13277L9.75451 8.13257C9.75457 8.13251 9.75474 8.13239 9.91653 8.37509L9.75451 8.13257C9.88856 8.0432 10.0699 8.07928 10.1592 8.2133C10.2485 8.34726 10.2122 8.52839 10.0783 8.61775Z" fill="white"/>
</g>
</svg>
