<svg width="28" height="29" viewBox="0 0 28 29" fill="none" xmlns="http://www.w3.org/2000/svg">
<g id="Diamond blue">
<path id="Vector" d="M25.375 11.2917L14 25.2917L2.625 11.2917L8.75 4.29175H19.25L25.375 11.2917Z" fill="#38ACFF"/>
<path id="Vector_2" fill-rule="evenodd" clip-rule="evenodd" d="M13.9998 25.8749C13.8242 25.8749 13.6579 25.7958 13.5471 25.6594L2.1721 11.6594C1.99291 11.4389 1.99871 11.1213 2.18584 10.9075L8.31082 3.90746C8.4216 3.78088 8.58163 3.70825 8.74984 3.70825H19.2498C19.418 3.70825 19.5781 3.78088 19.6889 3.90746L25.8138 10.9075C26.001 11.1213 26.0068 11.4389 25.8276 11.6594L14.4526 25.6594C14.3418 25.7958 14.1755 25.8749 13.9998 25.8749ZM8.74984 4.29159H19.2498L25.3748 11.2916L13.9998 25.2916L2.62484 11.2916L8.74984 4.29159Z" fill="#042360"/>
<path id="Vector_3" d="M19.25 4.29175L25.375 11.2917H2.625L8.75 4.29175H19.25Z" fill="#63BDFF"/>
<path id="Vector_4" d="M25.375 11.2917L14 25.2917V4.29175H19.25L25.375 11.2917Z" fill="#2D88F3"/>
<path id="Vector_5" d="M25.375 11.2917H14V4.29175H19.25L25.375 11.2917Z" fill="#53A1FE"/>
<path id="Vector_6" d="M2.625 11.2917L14 25.2917L8.16667 11.2917L14 4.29175H8.75L2.625 11.2917Z" fill="#46CAF3"/>
<path id="Vector_7" d="M9.04167 4.29175L2.625 11.2917H8.16667L14 4.29175H9.04167Z" fill="#68DBFF"/>
<path id="Vector_8" d="M2.625 11.2917L14 25.2917L4.66667 11.2917L10.7917 4.29175H8.75L2.625 11.2917Z" fill="#C1E9FF"/>
<path id="Vector_9" d="M8.75 4.29175L2.625 11.2917H4.66667L10.7917 4.29175H8.75Z" fill="#D8F1FF"/>
<path id="Vector_10" d="M25.375 11.2917L14 25.2917L19.8333 11.2917L14 4.29175H19.25L25.375 11.2917Z" fill="#4E5CDE"/>
<path id="Vector_11" d="M19.25 4.29175L25.375 11.2917H19.8333L14 4.29175H19.25Z" fill="#6A78F5"/>
<path id="Vector_12" d="M25.375 11.2917L14 25.2917L23.3333 11.2917L17.2083 4.29175H19.25L25.375 11.2917Z" fill="#2D88F3"/>
<path id="Vector_13" d="M19.2502 4.29175L25.3752 11.2917H23.3335L17.2085 4.29175H19.2502Z" fill="#52A1FE"/>
<path id="Vector_14" fill-rule="evenodd" clip-rule="evenodd" d="M7.77435 6.11301C7.89609 6.2185 7.90925 6.40272 7.80375 6.52443L4.01209 10.8994C3.90659 11.0212 3.72237 11.0343 3.60066 10.9288C3.47892 10.8233 3.46576 10.6391 3.57126 10.5174L7.36293 6.14241C7.46842 6.02067 7.65264 6.00751 7.77435 6.11301Z" fill="white"/>
<path id="Vector_15" fill-rule="evenodd" clip-rule="evenodd" d="M13.3159 6.11301C13.4376 6.2185 13.4508 6.40272 13.3453 6.52443L9.55359 10.8994C9.44809 11.0212 9.26388 11.0343 9.14216 10.9288C9.02042 10.8233 9.00727 10.6391 9.11276 10.5174L12.9044 6.14241C13.0099 6.02067 13.1941 6.00751 13.3159 6.11301Z" fill="#8FD0FF"/>
<path id="Vector_16" d="M16.6248 15.0834C16.6248 15.2445 16.4943 15.3751 16.3332 15.3751C16.1721 15.3751 16.0415 15.2445 16.0415 15.0834C16.0415 14.9223 16.1721 14.7917 16.3332 14.7917C16.4943 14.7917 16.6248 14.9223 16.6248 15.0834Z" fill="#2478DC"/>
<path id="Vector_17" d="M17.4998 16.2499C17.4998 16.411 17.3693 16.5416 17.2082 16.5416C17.0471 16.5416 16.9165 16.411 16.9165 16.2499C16.9165 16.0888 17.0471 15.9583 17.2082 15.9583C17.3693 15.9583 17.4998 16.0888 17.4998 16.2499Z" fill="#2478DC"/>
<path id="Vector_18" d="M16.3333 17.7084C16.3333 17.8695 16.2028 18.0001 16.0417 18.0001C15.8806 18.0001 15.75 17.8695 15.75 17.7084C15.75 17.5473 15.8806 17.4167 16.0417 17.4167C16.2028 17.4167 16.3333 17.5473 16.3333 17.7084Z" fill="#2478DC"/>
<path id="Vector_19" d="M15.4583 18.2917C15.4583 18.4528 15.3278 18.5833 15.1667 18.5833C15.0056 18.5833 14.875 18.4528 14.875 18.2917C14.875 18.1306 15.0056 18 15.1667 18C15.3278 18 15.4583 18.1306 15.4583 18.2917Z" fill="#2478DC"/>
<path id="Vector_20" d="M15.4583 20.0417C15.4583 20.2028 15.3278 20.3333 15.1667 20.3333C15.0056 20.3333 14.875 20.2028 14.875 20.0417C14.875 19.8806 15.0056 19.75 15.1667 19.75C15.3278 19.75 15.4583 19.8806 15.4583 20.0417Z" fill="#2478DC"/>
<path id="Vector_21" d="M15.7498 14.2084C15.7498 14.3695 15.6193 14.5001 15.4582 14.5001C15.2971 14.5001 15.1665 14.3695 15.1665 14.2084C15.1665 14.0473 15.2971 13.9167 15.4582 13.9167C15.6193 13.9167 15.7498 14.0473 15.7498 14.2084Z" fill="#2478DC"/>
<path id="Vector_22" d="M18.0833 13.6249C18.0833 13.786 17.9528 13.9166 17.7917 13.9166C17.6306 13.9166 17.5 13.786 17.5 13.6249C17.5 13.4638 17.6306 13.3333 17.7917 13.3333C17.9528 13.3333 18.0833 13.4638 18.0833 13.6249Z" fill="#2478DC"/>
<path id="Vector_23" d="M16.9165 13.4792C16.9165 13.7209 16.7206 13.9167 16.479 13.9167C16.2374 13.9167 16.0415 13.7209 16.0415 13.4792C16.0415 13.2376 16.2374 13.0417 16.479 13.0417C16.7206 13.0417 16.9165 13.2376 16.9165 13.4792Z" fill="#2478DC"/>
<path id="Vector_24" d="M16.3335 16.3958C16.3335 16.6374 16.1376 16.8333 15.896 16.8333C15.6544 16.8333 15.4585 16.6374 15.4585 16.3958C15.4585 16.1541 15.6544 15.9583 15.896 15.9583C16.1376 15.9583 16.3335 16.1541 16.3335 16.3958Z" fill="#2478DC"/>
</g>
</svg>
