<svg width="167" height="23" viewBox="0 0 167 23" fill="none" xmlns="http://www.w3.org/2000/svg">
<g id="White Logo RadicalX">
<path id="Vector" d="M71.2642 1.18896H74.0563V21.5381H71.2642V1.18896Z" fill="white"/>
<path id="Vector_2" d="M28.1886 1.26698L35.7684 21.6161H33.1825L30.714 15.6049H24.966L24.1301 13.4957L30.1449 13.4743L26.3247 2.84981L25.7485 1.26343H28.1886V1.26698Z" fill="white"/>
<path id="Vector_3" d="M118.72 1.46289L118.143 3.04928L114.323 13.6738L120.338 13.6951L119.502 15.8044H113.754L111.286 21.8156H108.7L116.279 1.46289H118.72Z" fill="white"/>
<path id="Vector_4" d="M157.539 13.517L151.641 21.6588H149.055L163.788 1.30615H166.228L165.094 2.89254L157.539 13.517Z" fill="#9AFE42" stroke="#9AFE42" stroke-width="0.0604676" stroke-miterlimit="10"/>
<g id="Vector_5">
<path d="M157.745 13.517L150.19 2.89254L149.055 1.30615H151.495L166.228 21.6553H163.642L157.745 13.5135" fill="#9AFE42"/>
<path d="M157.745 13.517L150.19 2.89254L149.055 1.30615H151.495L166.228 21.6553H163.642L157.745 13.5135" stroke="#9AFE42" stroke-width="0.0604676" stroke-miterlimit="10"/>
</g>
<path id="Vector_6" d="M131.523 19.7702H141.618L140.786 21.8154H129.25V1.46631H131.52V19.7738L131.523 19.7702Z" fill="white"/>
<path id="Vector_7" d="M11.6667 12.4499C12.1433 12.0409 12.6306 11.6283 13.029 11.1161C13.3989 10.6039 13.7084 10.0383 13.936 9.44078C14.1636 8.84322 14.2775 8.22076 14.2775 7.56628C14.2775 6.63082 14.0783 5.7487 13.6799 4.98396C13.2815 4.21923 12.7729 3.56475 12.1184 2.99565C11.4639 2.45499 10.6992 2.03172 9.87756 1.71871C9.05591 1.4057 8.17379 1.26343 7.29524 1.26343H0L1.20224 3.22329H7.29524C7.97461 3.22329 8.60063 3.33711 9.16973 3.56475C9.73884 3.82085 10.219 4.13386 10.6459 4.55713C11.0442 4.98396 11.3537 5.4926 11.6098 6.06171C11.8374 6.65927 11.9512 7.28173 11.9512 7.9362C11.9512 8.22076 11.8659 8.53377 11.7236 8.90013C11.5813 9.26649 11.4106 9.5546 11.2683 9.75023C10.8415 10.4332 10.2759 10.9703 9.56455 11.3402C8.85317 11.7101 8.11688 11.9093 7.29524 11.9093H4.21139L5.41363 13.8691H7.46597L11.5529 21.6161H14.1921L9.82065 13.4139C9.82065 13.4139 10.8984 13.108 11.6667 12.4499Z" fill="white"/>
<path id="Vector_8" d="M51.2058 3.22322C52.4827 3.22322 53.6174 3.42241 54.6418 3.84924C55.6626 4.27607 56.5447 4.84162 57.281 5.58146C57.9924 6.31774 58.558 7.19985 58.9563 8.22069C59.3547 9.24152 59.5539 10.3762 59.5539 11.5998C59.5539 12.8233 59.3263 13.8122 58.8994 14.8081C58.4441 15.8005 57.8501 16.6541 57.0818 17.362C56.3135 18.0698 55.435 18.6389 54.4426 19.0373C53.4218 19.4356 52.344 19.6348 51.2058 19.6348H49.0396L49.8435 21.6232H51.3481C52.8242 21.6232 54.215 21.3671 55.4919 20.8584C56.7688 20.3747 57.875 19.6668 58.8141 18.7598C59.7495 17.8813 60.5178 16.8 61.0549 15.523C61.5956 14.2746 61.8766 12.9123 61.8766 11.4077C61.8766 9.90311 61.592 8.54081 61.0549 7.29233C60.5143 6.07231 59.7495 4.99457 58.8141 4.08399C57.8501 3.20544 56.7439 2.49405 55.4634 2.01387C54.1865 1.53013 52.7958 1.27759 51.3481 1.27759H45.031L45.9629 3.20899L51.2058 3.23745V3.22322Z" fill="white"/>
<path id="Vector_9" d="M93.6041 3.42268C92.3272 3.42268 91.1925 3.62187 90.1681 4.0487C89.1473 4.47553 88.2652 5.04108 87.5289 5.78092C86.8175 6.5172 86.2519 7.39932 85.8536 8.42015C85.4552 9.44099 85.256 10.5756 85.256 11.7992C85.256 13.0228 85.4837 14.0116 85.9105 15.0076C86.3658 15.9999 86.9598 16.8536 87.7281 17.5614C88.4964 18.2693 89.3749 18.8384 90.3673 19.2367C91.3881 19.6351 92.4659 19.8343 93.6041 19.8343H95.7703L94.9664 21.8226H93.4618C91.9857 21.8226 90.5949 21.5665 89.318 21.0579C88.0411 20.5741 86.9349 19.8663 85.9959 18.9593C85.0604 18.0807 84.2921 16.9994 83.755 15.7225C83.2143 14.474 82.9333 13.1117 82.9333 11.6071C82.9333 10.1026 83.2179 8.74027 83.755 7.4918C84.2956 6.27177 85.0604 5.19403 85.9959 4.28346C86.9598 3.4049 88.066 2.69352 89.3465 2.21333C90.6234 1.72959 92.0142 1.47705 93.4618 1.47705H99.7789L98.847 3.40846L93.6041 3.43691V3.42268Z" fill="white"/>
</g>
</svg>
